<!--?xml version="1.0" encoding="utf-8"?-->
<!-- Generator: Adobe Illustrator 18.1.1, SVG Export Plug-In . SVG Version: 6.00 Build 0)  -->

<svg version="1.1" id="_x31_0" xmlns="http://www.w3.org/2000/svg" xmlns:xlink="http://www.w3.org/1999/xlink" x="0px" y="0px" viewBox="0 0 512 512" style="width: 256px; height: 256px; opacity: 1;" xml:space="preserve">
<style type="text/css">
	.st0{fill:#374149;}
</style>
<g>
	<path class="st0" d="M228.558,318.783l95.618-55.207c5.824-3.363,5.824-11.77,0-15.129l-95.618-55.207
		c-5.824-3.363-13.106,0.84-13.106,7.562v110.414C215.453,317.943,222.734,322.146,228.558,318.783z" style="fill: rgb(58, 171, 210);"></path>
	<path class="st0" d="M470.398,68.08H41.598C18.637,68.08,0,86.717,0,109.678v292.641c0,22.961,18.637,41.602,41.598,41.602h428.801
		c22.879,0,41.602-18.641,41.602-41.602V109.678C512,86.717,493.278,68.08,470.398,68.08z M464,395.92H48V116.08h416V395.92z" style="fill: rgb(58, 171, 210);"></path>
	<path class="st0" d="M81.566,190.553h32.867c1.305,0,2.367-1.058,2.367-2.367v-46.242c0-1.309-1.062-2.367-2.367-2.367H81.562
		c-1.309,0-2.367,1.058-2.367,2.363v46.246C79.195,189.494,80.258,190.553,81.566,190.553z" style="fill: rgb(58, 171, 210);"></path>
	<path class="st0" d="M81.562,281.486h32.871c1.305,0,2.367-1.058,2.367-2.367v-46.242c0-1.309-1.062-2.367-2.367-2.367H81.562
		c-1.309,0-2.367,1.058-2.367,2.363v46.246C79.195,280.428,80.258,281.486,81.562,281.486z" style="fill: rgb(58, 171, 210);"></path>
	<path class="st0" d="M81.566,372.424h32.867c1.305,0,2.367-1.062,2.367-2.371V323.81c0-1.309-1.062-2.367-2.367-2.367H81.562
		c-1.309,0-2.367,1.058-2.367,2.367v46.242C79.195,371.362,80.258,372.424,81.566,372.424z" style="fill: rgb(58, 171, 210);"></path>
	<path class="st0" d="M397.566,190.553h32.867c1.305,0,2.367-1.058,2.367-2.367v-46.242c0-1.309-1.062-2.367-2.367-2.367h-32.871
		c-1.309,0-2.367,1.058-2.367,2.363v46.246C395.195,189.494,396.258,190.553,397.566,190.553z" style="fill: rgb(58, 171, 210);"></path>
	<path class="st0" d="M397.562,281.486h32.871c1.305,0,2.367-1.058,2.367-2.367v-46.242c0-1.309-1.062-2.367-2.367-2.367h-32.871
		c-1.309,0-2.367,1.058-2.367,2.363v46.246C395.195,280.428,396.258,281.486,397.562,281.486z" style="fill: rgb(58, 171, 210);"></path>
	<path class="st0" d="M397.566,372.424h32.867c1.305,0,2.367-1.062,2.367-2.371V323.81c0-1.309-1.062-2.367-2.367-2.367h-32.871
		c-1.309,0-2.367,1.058-2.367,2.367v46.242C395.195,371.362,396.258,372.424,397.566,372.424z" style="fill: rgb(58, 171, 210);"></path>
</g>
</svg>
